<?xml version="1.0" standalone="no"?>
<!DOCTYPE svg PUBLIC "-//W3C//DTD SVG 20010904//EN"
 "http://www.w3.org/TR/2001/REC-SVG-20010904/DTD/svg10.dtd">
<svg version="1.0" xmlns="http://www.w3.org/2000/svg"
 width="1024.000000pt" height="1024.000000pt" viewBox="0 0 1024.000000 1024.000000"
 preserveAspectRatio="xMidYMid meet">
<metadata>
Created by potrace 1.14, written by Peter Selinger 2001-2017
</metadata>
<g transform="translate(0.000000,1024.000000) scale(0.100000,-0.100000)"
fill="#000000" stroke="none">
<path d="M4819 10236 c-2 -2 -42 -6 -89 -9 -103 -7 -161 -14 -305 -34 -60 -8
-126 -17 -145 -20 -180 -24 -541 -114 -770 -190 -300 -100 -557 -211 -815
-351 -364 -197 -717 -445 -1010 -712 -83 -75 -326 -320 -400 -404 -476 -535
-851 -1202 -1061 -1889 -28 -90 -71 -244 -78 -279 -3 -13 -19 -84 -35 -159
-17 -75 -33 -151 -35 -170 -3 -19 -7 -47 -10 -64 -11 -66 -25 -163 -32 -220
-3 -33 -8 -73 -10 -90 -13 -110 -19 -268 -19 -525 0 -294 6 -421 30 -615 2
-22 7 -62 10 -90 3 -27 8 -57 10 -65 2 -8 7 -33 10 -55 4 -38 7 -53 20 -115 3
-14 8 -43 11 -65 7 -48 89 -382 109 -445 86 -268 121 -366 189 -528 104 -246
225 -482 363 -707 53 -86 208 -316 238 -353 7 -9 48 -62 91 -117 161 -208 469
-536 659 -700 375 -324 808 -605 1222 -794 186 -84 202 -91 208 -91 4 0 21 -7
38 -15 46 -21 157 -62 272 -100 320 -106 629 -179 935 -219 19 -3 53 -7 75
-10 22 -3 67 -8 100 -11 33 -3 94 -9 135 -13 162 -16 831 -6 925 13 11 3 43 7
70 10 88 8 135 15 285 40 608 102 1257 350 1805 688 73 45 354 236 365 247 3
3 34 28 70 55 56 42 151 118 186 150 6 6 45 39 85 75 143 125 442 433 520 535
13 17 26 32 29 35 4 3 40 48 81 100 361 458 644 984 829 1540 66 201 149 518
175 672 3 18 10 58 15 88 5 30 12 78 16 105 3 28 8 53 9 56 2 3 7 41 10 85 4
43 8 81 10 84 10 17 20 266 20 525 0 265 -6 419 -20 535 -2 19 -7 56 -10 82
-36 316 -116 680 -218 988 -30 91 -60 179 -67 195 -7 17 -16 39 -20 50 -224
575 -537 1087 -958 1565 -69 78 -327 338 -397 400 -76 67 -236 200 -273 228
-21 15 -44 33 -52 40 -25 22 -149 110 -255 182 -297 200 -674 396 -990 515
-55 21 -109 41 -120 46 -123 50 -540 168 -680 193 -16 3 -79 14 -140 26 -135
25 -146 27 -216 35 -31 3 -67 8 -80 10 -13 3 -58 7 -99 10 -41 4 -86 9 -100
12 -28 6 -715 14 -721 9z"/>
</g>
</svg>
